<svg xmlns="http://www.w3.org/2000/svg" xmlns:xlink="http://www.w3.org/1999/xlink" width="512" height="512" viewBox="0 0 512 512"><defs><clipPath id="b"><rect width="512" height="512"/></clipPath></defs><g id="a" clip-path="url(#b)"><circle cx="256" cy="256" r="256" fill="#eaebff"/><path d="M359.992,203.133c-.336,12.255-10.7,21.867-22.959,21.867H298.125v11.25a100.854,100.854,0,0,1-9.563,42.993l42.348,42.348a22.5,22.5,0,0,1-31.821,31.82L260.6,314.924A100.821,100.821,0,0,1,196.875,337.5V165.937a8.438,8.438,0,0,0-8.437-8.437H171.563a8.438,8.438,0,0,0-8.438,8.437V337.5A100.821,100.821,0,0,1,99.4,314.924L60.911,353.41A22.5,22.5,0,0,1,29.09,321.59l42.348-42.348a100.855,100.855,0,0,1-9.562-42.993V225H22.968C10.709,225,.345,215.388.009,203.133A22.5,22.5,0,0,1,22.5,180H61.875V138.695L29.09,105.91A22.5,22.5,0,0,1,60.911,74.09L99.32,112.5H260.68l38.41-38.41a22.5,22.5,0,0,1,31.821,31.82l-32.785,32.785V180H337.5A22.5,22.5,0,0,1,359.992,203.133ZM180.7,0a78.75,78.75,0,0,0-78.75,78.75h157.5A78.75,78.75,0,0,0,180.7,0Z" transform="translate(75.999 76)" fill="#33356b"/></g></svg>